<?xml version="1.0" standalone="no"?>
<!DOCTYPE svg PUBLIC "-//W3C//DTD SVG 20010904//EN"
 "http://www.w3.org/TR/2001/REC-SVG-20010904/DTD/svg10.dtd">
<svg version="1.0" xmlns="http://www.w3.org/2000/svg"
 width="2048.000000pt" height="512.000000pt" viewBox="0 0 2048.000000 512.000000"
 preserveAspectRatio="xMidYMid meet">

<g transform="translate(0.000000,512.000000) scale(0.100000,-0.100000)"
fill="#000000" stroke="none">
<path d="M10014 4106 c-337 -70 -628 -231 -887 -489 -267 -267 -449 -629 -498
-993 -16 -121 -6 -373 20 -484 56 -246 182 -489 364 -706 194 -231 484 -423
792 -523 111 -36 302 -78 311 -68 2 2 -17 18 -44 35 -26 17 -74 54 -108 84
-168 147 -258 302 -350 600 -88 285 -155 400 -380 652 -97 107 -203 366 -204
495 -1 52 -14 23 -36 -79 -26 -119 -26 -409 -1 -530 43 -201 120 -380 243
-562 87 -129 105 -152 181 -230 31 -32 51 -58 45 -58 -14 0 -176 127 -237 186
-213 207 -364 487 -421 780 -24 120 -24 357 0 479 53 279 178 536 366 753 218
252 555 447 892 516 42 9 86 16 98 16 17 0 20 6 20 49 0 63 -14 101 -37 100
-10 0 -68 -11 -129 -23z"/>
<path d="M10254 4038 c28 -374 134 -706 321 -1007 144 -231 426 -507 642 -627
60 -34 69 -36 121 -30 31 4 58 9 60 11 3 2 -40 53 -94 112 -178 193 -263 313
-353 491 -148 295 -226 596 -249 966 l-7 120 -50 13 c-85 23 -236 43 -319 43
l-79 0 7 -92z"/>
<path d="M10770 4003 c0 -80 28 -293 56 -424 94 -445 271 -776 577 -1078 l95
-93 36 13 c20 7 36 16 36 20 0 3 -23 46 -51 94 -179 311 -289 753 -289 1162
l0 131 -63 40 c-79 50 -162 92 -268 135 -136 56 -129 56 -129 0z"/>
<path d="M11296 3773 c-3 -3 -6 -39 -6 -79 l0 -74 118 -117 c292 -292 455
-675 455 -1068 0 -270 -73 -509 -231 -757 l-49 -77 10 -62 c17 -114 16 -114
91 -14 128 173 244 441 281 652 80 446 -49 918 -355 1302 -100 126 -297 310
-314 294z"/>
<path d="M11311 3485 c-1 -44 36 -275 59 -374 32 -137 78 -267 139 -396 71
-149 127 -239 145 -232 8 3 41 25 74 49 71 50 71 51 42 183 -58 274 -182 510
-369 706 -86 90 -90 93 -90 64z"/>
<path d="M9652 3428 c-27 -35 -57 -75 -67 -90 l-17 -28 72 -77 c40 -43 76 -78
79 -78 3 0 39 34 78 76 l73 76 -30 46 c-37 60 -109 137 -125 137 -7 0 -35 -28
-63 -62z"/>
<path d="M5510 3417 c-46 -24 -80 -74 -80 -117 0 -56 52 -114 162 -181 208
-128 353 -303 464 -556 17 -41 34 -71 37 -66 8 12 -20 276 -39 368 -67 332
-255 575 -445 575 -39 0 -69 -7 -99 -23z"/>
<path d="M14832 3410 c-69 -35 -158 -125 -211 -214 -45 -75 -98 -218 -121
-325 -18 -84 -44 -360 -35 -369 3 -3 12 12 20 34 41 100 112 229 170 306 85
113 174 194 294 268 158 97 204 164 166 244 -42 88 -169 113 -283 56z"/>
<path d="M9301 3326 c45 -95 49 -194 15 -355 -27 -129 -33 -241 -16 -302 17
-60 83 -152 140 -194 48 -35 177 -91 187 -81 2 2 -9 23 -26 46 -49 68 -66 132
-66 245 1 114 21 188 86 315 22 42 39 82 39 89 0 7 -42 54 -92 104 -73 72
-114 103 -190 145 -53 28 -99 52 -102 52 -3 0 8 -29 25 -64z"/>
<path d="M10087 3351 c-240 -126 -405 -323 -463 -551 -43 -172 20 -363 132
-400 41 -14 140 2 197 32 132 67 220 231 203 377 -4 30 -21 109 -38 175 -44
173 -37 237 40 389 7 14 -16 7 -71 -22z"/>
<path d="M6624 3167 c-88 -34 -125 -60 -198 -138 -74 -80 -144 -206 -176 -319
-34 -116 -39 -337 -11 -452 58 -244 182 -441 378 -598 41 -33 71 -60 68 -60
-13 0 -194 94 -272 142 -46 28 -174 127 -285 220 -240 200 -395 307 -575 394
-291 142 -585 211 -978 229 -247 12 -377 47 -428 116 -27 37 -33 108 -13 147
29 57 90 69 131 27 23 -23 25 -23 25 -4 0 36 -44 69 -93 69 -126 0 -190 -151
-111 -262 36 -51 126 -102 216 -123 38 -8 173 -24 301 -35 343 -29 516 -63
747 -147 167 -61 305 -129 436 -216 109 -72 247 -178 241 -184 -2 -2 -51 22
-109 52 -404 211 -868 324 -1209 295 -329 -29 -576 -106 -1204 -375 -798 -343
-1214 -456 -1740 -472 -589 -17 -1031 130 -1158 387 -77 156 -17 310 152 389
47 22 70 26 146 26 74 0 98 -4 138 -24 45 -22 77 -61 77 -95 0 -8 -12 -29 -27
-47 l-27 -32 31 17 c41 20 59 72 43 120 -20 61 -80 99 -181 115 -179 29 -374
-71 -430 -219 -28 -74 -23 -192 11 -265 52 -110 216 -237 395 -306 123 -48
328 -96 487 -115 172 -20 521 -15 718 11 493 63 977 209 1590 477 391 171 591
241 832 290 163 33 443 33 608 0 269 -54 523 -144 795 -281 149 -76 317 -172
311 -179 -2 -1 -56 15 -120 37 -216 75 -621 166 -866 196 -230 28 -473 16
-630 -31 -103 -31 -230 -102 -292 -165 -75 -74 -102 -133 -103 -220 0 -56 4
-73 30 -115 73 -116 217 -149 303 -68 l37 34 -33 -11 c-106 -36 -218 84 -197
209 28 168 232 281 568 314 141 14 314 2 545 -37 412 -71 629 -136 1175 -354
417 -166 548 -199 817 -208 387 -13 695 94 899 313 206 220 193 556 -27 729
-85 67 -148 89 -262 89 -88 1 -100 -1 -162 -32 -129 -63 -206 -177 -195 -288
10 -94 60 -160 140 -179 59 -15 137 20 137 61 0 13 -5 12 -26 -5 -56 -44 -143
-18 -175 52 -25 56 -24 102 5 163 59 128 233 189 381 133 146 -55 250 -234
230 -396 -15 -121 -56 -205 -144 -296 -249 -259 -730 -348 -1171 -217 -270 81
-510 244 -669 455 -66 88 -144 246 -173 350 -31 114 -31 325 0 440 53 194 161
343 298 407 64 31 76 33 174 33 97 0 110 -2 172 -32 136 -64 218 -187 226
-339 9 -167 -73 -299 -208 -335 -62 -16 -114 -5 -157 34 -43 40 -55 104 -29
155 24 46 -2 43 -44 -5 -30 -33 -32 -41 -28 -92 7 -103 80 -163 197 -165 85 0
141 26 210 99 205 217 131 567 -146 698 -61 28 -79 32 -173 34 -90 3 -114 0
-166 -20z"/>
<path d="M13634 3166 c-136 -50 -239 -161 -279 -300 -25 -86 -17 -222 18 -299
35 -76 114 -159 180 -187 134 -58 273 -8 309 111 15 52 -4 113 -44 142 -32 24
-45 18 -29 -11 6 -12 11 -41 11 -66 0 -83 -83 -146 -172 -132 -202 33 -299
285 -191 500 107 214 382 281 592 146 181 -117 292 -426 251 -701 -33 -228
-131 -419 -304 -593 -181 -182 -423 -308 -693 -363 -67 -14 -132 -18 -278 -17
-179 1 -197 2 -307 31 -198 53 -362 143 -463 255 -112 124 -151 290 -105 440
51 165 171 257 337 258 61 0 80 -4 134 -33 128 -66 181 -197 122 -298 -32 -54
-106 -75 -151 -43 -18 12 -22 13 -22 1 0 -27 39 -50 85 -50 132 0 208 166 141
309 -65 141 -252 223 -417 184 -312 -74 -446 -450 -263 -741 43 -69 143 -161
235 -217 195 -117 410 -172 679 -172 279 0 438 39 865 210 505 203 765 283
1145 349 324 57 524 63 728 21 257 -52 401 -168 402 -323 0 -119 -97 -211
-190 -179 -59 21 -22 -26 43 -53 71 -30 148 -13 213 47 57 52 78 109 72 191
-12 146 -129 265 -342 348 -206 80 -548 79 -951 -2 -211 -43 -440 -101 -579
-148 -66 -22 -121 -39 -123 -37 -6 6 143 89 316 176 304 151 577 246 841 291
106 18 151 20 295 16 323 -10 505 -64 1165 -347 573 -245 959 -362 1420 -429
309 -45 675 -52 890 -16 214 35 427 106 554 183 85 51 187 151 219 215 107
210 -4 428 -250 492 -73 19 -133 19 -208 0 -110 -29 -171 -106 -141 -179 13
-32 50 -66 70 -66 5 0 -2 13 -17 28 -34 35 -34 72 -2 111 40 47 99 64 202 59
76 -3 96 -9 152 -38 99 -53 169 -154 171 -246 1 -95 -68 -219 -163 -290 -298
-224 -873 -293 -1493 -179 -368 68 -620 152 -1209 402 -436 186 -500 211 -697
277 -299 100 -570 140 -796 117 -178 -18 -319 -47 -491 -103 -183 -59 -362
-135 -503 -212 -56 -31 -103 -54 -105 -52 -2 2 40 39 95 83 237 191 536 335
856 414 146 35 273 53 521 74 221 18 269 26 349 55 77 29 150 99 166 159 17
63 -11 146 -59 178 -48 32 -114 31 -146 -2 -14 -13 -25 -31 -25 -40 0 -14 4
-13 26 4 35 28 66 26 102 -4 69 -58 37 -180 -60 -231 -56 -29 -145 -44 -331
-54 -436 -25 -724 -93 -1027 -245 -185 -93 -309 -180 -570 -404 -80 -69 -185
-151 -235 -184 -88 -58 -274 -157 -295 -157 -6 0 24 28 67 63 138 112 256 267
319 421 13 32 35 106 50 164 24 97 26 117 21 251 -6 169 -24 247 -90 380 -47
94 -143 206 -214 247 -114 67 -281 84 -399 40z"/>
<path d="M15052 2945 c-102 -23 -185 -75 -297 -189 -114 -116 -193 -238 -276
-426 -28 -63 -68 -153 -90 -198 -21 -46 -39 -89 -39 -95 0 -6 26 27 58 73 31
47 100 129 152 183 169 177 343 287 547 345 56 16 117 38 135 49 77 45 103
142 53 201 -47 56 -143 79 -243 57z"/>
<path d="M5321 2928 c-108 -53 -107 -179 2 -242 23 -13 89 -38 147 -56 264
-80 498 -261 689 -534 46 -67 54 -60 15 15 -14 28 -50 108 -80 177 -151 352
-335 571 -537 642 -78 28 -178 27 -236 -2z"/>
<path d="M10392 2671 c-24 -140 -84 -238 -260 -425 -65 -69 -133 -150 -151
-181 -81 -133 -113 -268 -93 -386 12 -71 79 -259 92 -259 4 0 10 26 13 57 8
80 62 182 147 278 152 173 181 211 220 289 80 163 109 375 76 562 -24 139 -30
147 -44 65z"/>
<path d="M14040 2686 c0 -4 5 -16 10 -26 20 -38 31 -163 20 -239 -20 -143 -81
-257 -215 -399 -81 -86 -85 -93 -41 -62 65 46 173 164 215 233 70 117 86 172
86 287 0 89 -3 111 -22 146 -20 38 -53 75 -53 60z"/>
<path d="M6495 2654 c-116 -178 -1 -495 253 -693 23 -18 42 -30 42 -27 0 3
-31 36 -68 73 -128 127 -204 269 -222 412 -10 80 -2 178 20 236 12 33 -3 32
-25 -1z"/>
<path d="M11740 2459 c-108 -82 -305 -159 -407 -159 -46 0 -94 -15 -105 -33
-17 -26 -8 -66 17 -83 33 -21 146 -14 255 16 77 22 225 94 273 134 27 21 28
26 25 95 l-3 72 -55 -42z"/>
<path d="M4225 2409 c-233 -25 -458 -86 -805 -219 -493 -189 -553 -211 -669
-243 -101 -27 -133 -31 -246 -31 -120 -1 -134 1 -185 25 -30 14 -70 41 -87 59
-84 86 -80 210 8 256 44 22 77 11 95 -31 15 -36 31 -44 52 -23 13 13 16 56 6
83 -18 45 -134 60 -191 25 -49 -29 -86 -92 -91 -154 -8 -103 58 -200 177 -254
82 -38 248 -43 390 -13 136 29 362 107 686 236 433 172 615 226 884 260 69 9
144 20 166 24 35 7 30 9 -35 8 -41 0 -111 -3 -155 -8z"/>
<path d="M16130 2409 c30 -5 111 -15 180 -24 258 -33 481 -97 835 -240 289
-117 523 -202 653 -237 105 -28 132 -32 262 -32 131 -1 150 1 195 22 62 28
131 94 156 147 38 82 15 205 -48 255 -36 28 -95 44 -136 36 -73 -14 -111 -91
-66 -132 17 -16 22 -16 29 -4 6 8 10 20 10 27 0 17 41 43 67 43 13 0 40 -15
61 -34 35 -32 37 -38 37 -94 0 -88 -39 -146 -128 -191 -57 -29 -80 -35 -151
-39 -164 -9 -317 34 -815 228 -200 78 -418 157 -485 176 -227 66 -477 106
-640 103 l-71 -2 55 -8z"/>
<path d="M9647 2314 c-10 -11 -8 -332 3 -463 18 -201 54 -338 136 -510 107
-228 299 -413 499 -483 104 -36 251 -39 385 -7 l88 20 7 70 c4 39 4 73 1 76
-3 3 -41 -5 -83 -18 -106 -32 -258 -32 -353 0 -254 87 -440 317 -517 640 -23
96 -26 133 -32 391 l-6 285 -60 3 c-34 2 -64 0 -68 -4z"/>
<path d="M6903 2275 c-47 -20 -73 -68 -73 -136 0 -205 336 -462 669 -510 118
-17 325 -7 421 21 166 48 308 155 349 266 28 74 26 92 -3 28 -115 -252 -561
-360 -945 -229 -155 52 -328 170 -395 268 -39 58 -62 133 -52 173 9 35 50 74
79 74 27 0 57 -28 57 -53 0 -23 17 -21 29 2 15 28 -4 74 -38 94 -35 20 -55 21
-98 2z"/>
<path d="M13564 2271 c-35 -21 -50 -61 -34 -91 13 -25 30 -26 30 -2 0 25 31
52 59 52 12 0 33 -11 46 -25 37 -36 35 -113 -4 -180 -63 -110 -234 -235 -412
-302 -288 -108 -649 -72 -846 86 -52 41 -113 129 -113 164 0 9 -5 17 -11 17
-7 0 -9 -10 -4 -27 13 -53 39 -96 93 -155 170 -183 562 -243 874 -132 196 70
407 233 470 364 31 64 35 146 8 188 -20 32 -71 62 -107 62 -10 0 -32 -9 -49
-19z"/>
<path d="M11727 2223 c-55 -35 -58 -39 -81 -112 -31 -98 -53 -205 -62 -306 -6
-70 -5 -78 8 -68 20 17 99 180 133 273 23 65 68 241 62 246 -1 1 -28 -14 -60
-33z"/>
<path d="M11520 2136 c-42 -15 -69 -60 -133 -221 -94 -234 -136 -419 -144
-637 -5 -126 -3 -158 7 -158 19 0 153 103 232 179 l69 66 -16 70 c-22 97 -31
342 -16 446 11 77 42 214 57 253 7 19 -7 19 -56 2z"/>
<path d="M11313 2103 c-25 -3 -41 -18 -83 -74 -100 -135 -162 -235 -225 -364
-105 -215 -161 -427 -172 -648 l-6 -119 24 6 c13 4 89 40 169 79 l145 72 6
195 c4 107 12 222 18 255 38 189 95 369 165 520 20 43 36 79 36 81 0 4 -27 3
-77 -3z"/>
<path d="M5536 1809 c-119 -19 -220 -71 -287 -146 -103 -114 -84 -263 32 -263
53 0 90 36 114 110 46 144 146 239 295 281 l45 13 -45 7 c-56 9 -91 9 -154 -2z"/>
<path d="M14870 1812 l-45 -7 64 -20 c147 -44 238 -136 282 -283 26 -89 120
-132 174 -78 73 73 22 220 -106 305 -100 67 -248 100 -369 83z"/>
<path d="M5745 1746 c-152 -38 -265 -156 -265 -278 0 -36 6 -54 26 -77 50 -60
106 -31 118 59 15 112 59 175 156 224 38 19 92 37 122 40 29 4 67 10 83 13 29
7 28 7 -20 19 -64 16 -157 16 -220 0z"/>
<path d="M14610 1749 c-81 -14 -80 -26 2 -32 101 -7 171 -33 228 -84 55 -49
85 -106 95 -182 8 -57 32 -91 66 -91 35 0 57 18 74 64 16 41 16 48 0 101 -30
106 -137 192 -272 220 -76 16 -112 17 -193 4z"/>
</g>
</svg>
